<?xml version="1.0" encoding="UTF-8"?>
<svg version="1.1" viewBox="0 0 2048 661" width="1280" height="1280" xmlns="http://www.w3.org/2000/svg">
<path transform="translate(1705,2)" d="m0 0h25l26 2 26 4 32 8 28 10 24 11 20 11 17 11 19 14 14 12 13 12 10 10 7 8 14 17 14 20 11 19 12 23 10 25 8 25 6 26 4 29 1 14v35l-2 23-4 25-7 28-10 29-11 24-10 19-13 20-14 19-12 14-12 13-9 9-8 7-13 11-18 13-19 12-22 12-23 10-19 7-25 7-25 5-26 3-17 1h-20l-27-2-26-4-25-6-33-11-20-9-16-8-14-8-18-12-12-9-11-9-20-18-7-7-7-8-12-14-13-18-12-19-10-18-9-19-9-24-7-23-6-28-3-24-1-13v-35l2-23 5-29 6-24 10-29 11-24 9-17 13-21 12-16 9-11 9-10 7-8 12-12 8-7 16-13 17-12 21-13 21-11 24-10 27-9 25-6 26-4zm-5 35-21 2-28 5-25 7-19 7-24 11-18 10-18 12-13 10-13 11-16 15-7 8-12 14-13 18-12 20-12 23-9 23-6 19-6 26-3 21-1 12v39l3 27 5 24 7 24 8 21 12 25 12 20 10 14 11 14 11 12 9 10 8 7 10 9 17 13 20 13 24 13 24 10 25 8 22 5 27 4 14 1h29l23-2 24-4 26-7 23-8 26-12 19-11 12-8 16-12 14-12 15-14 7-8 12-14 13-18 11-18 12-23 10-25 6-19 6-26 3-21 1-12v-39l-3-27-5-25-8-26-10-25-10-20-11-18-12-17-9-11-10-11-7-8-7-7-8-7-16-13-17-12-24-14-21-10-24-9-25-7-28-5-22-2z" fill="#020202"/>
<path transform="translate(537,59)" d="m0 0 3 1v7l-6 16-8 16-16 29-14 25-45 81-14 24-10 18-13 22-11 19-3 7 4-2 7-8 12-13 8-8 7-8 12-12 8-7 12-11 13-10 13-8 9-3h5l3 3-1 8-9 21-12 23-12 19-13 23-6 13-1 8 9-3 15-14 5-4 7-8 8-8 7-8 10-11 12-20 12-19 8-10 8-7 12-6h9l1 3-8 16-15 27-13 23-15 27-6 16v5l5-1 10-8 13-12 7-7 7-8 4-5 10-17 9-12 11-13 11-11 17-13 16-9 16-5 6-1h15l7 3 5 5 1 3v9l-5 13-3 6 11-3 4-1h9l1 4-4 5-11 9-8 7-6 10-7 16-9 16-10 14-9 11-17 17-15 11-16 8-12 3h-13l-8-3-7-8-3-8-1-6v-12l3-17 2-9-30 30-8 7-17 14-15 9-7 1-4-4v-10l5-16 9-21 9-16-31 31-8 7-14 12-17 12-11 5h-6l-3-5 1-10 6-16 12-23 17-28 14-23 7-13 1-4-9 3-9 7-19 19-7 8-12 14-11 13-11 14-11 13-7 8-9 10-9 9-8 6-4 2h-4l-1-7 7-19 15-30 13-23 45-81 14-24 12-21 17-28 12-20 14-22 14-21 12-17 10-13 9-10zm128 179-9 4-9 7-9 9-13 17-10 15-9 16-8 16-8 19-5 18-1 7v9l3 7 2 2h10l8-4 10-9 10-12 10-15 11-23 5-17 3-17 4-5 15-9 2-6 1-5v-16l-3-6-4-2z" fill="#020202"/>
<path transform="translate(982,222)" d="m0 0h11l1 4-9 7-8 11-5 12-3 14-1 9-1 30-3 24-4 15-7 14-8 10-11 10-13 8-12 5-9 2h-17l-10-4-5-6-2-8 1-10 4-10 4-6 8-9 13-9 13-5h5l-2 4-8 8-9 15-5 13-1 10 3 7 8 1 8-3 10-9 8-13 5-12 5-19 5-30 2-21 1-17-6 5-9 11-9 10-9 11-12 13-9 10-7 7-7 8-17 17-8 7-11 10-17 13-14 7-5-1-3-5 1-10 6-18 11-24 5-9-38 38-11 9-14 11-14 8-7 1-4-3v-10l4-12 10-21 14-24 14-23 10-17 4-8 1-4-5 1-11 8-13 12-15 15-7 8-10 11-9 11-14 17-13 17-9 12-10 7-8 3h-7l-2-1 1-7 12-25 13-24 14-24 15-27 12-20 10-13 9-10 9-5 10-3 5 1-1 6-15 25-15 26-15 27-2 4 4-2 7-7 7-8 14-15 13-12 17-16 11-9 13-10 13-8 6-2 6 1 2 3-2 10-7 16-12 23-15 25-10 18-7 15v6l5-1 11-8 22-22 7-8 11-12 6-8 15-25 10-15 5-6 11-8 9-4h9l-1 7-13 24-26 46-11 20-5 13-1 8 7-3 13-11 22-22 7-8 9-10 9-11 12-13 9-11 11-13 12-16 10-7 10-4z" fill="#030303"/>
<path transform="translate(1129,93)" d="m0 0 5 1-1 8-5 12-14 27-5 9h39l-1 5-4 2h-39l-2 6-13 25-12 22-16 31-12 22-15 29-12 22-12 23-5 13-1 7 7-3 10-8 10-9 18-18 7-8 11-12 7-8 12-14 17-17 16-11 15-8 18-6 11-2h27l6 3-1 5-2 1-20 2-16 5-16 9-13 11-11 11-9 11-9 12-10 16-10 19-2 6v9l6-1 10-8 15-14 9-9 7-8 12-14 12-17 7-10 8-8 10-6 6-2h6l2 1-1 6-14 24-13 24-11 20-7 17v3l5-1 11-8 19-19 7-8 13-14 7-8 4-2-1 8-8 11-9 9-7 8-10 10-7 8-12 12-8 7-13 12-15 11-10 5-6 1-3-2-1-5 3-12 6-15 10-20 8-14-6 4-7 8-30 30-8 7-13 11-13 7h-8l-4-5-1-8 4-20 5-15 7-16-9 9-7 8-8 8-8 7-7 7-22 18-13 8-6 2-5-1-2-2v-8l4-15 11-26 13-25 10-18 15-28 13-24 15-27 14-25 15-25 8-13-30-1-1-2 4-4 3-1h30l2-5 8-12 11-16 10-13 8-9z" fill="#020202"/>
<path transform="translate(366,222)" d="m0 0h11l1 4-12 11-7 12-4 13-2 13-1 28-2 22-4 19-7 16-7 9-5 6-16 12-14 7-12 3h-17l-9-3-7-8-1-4v-11l4-11 6-9 9-9 11-7 12-5h5v3l-7 6-10 15-5 11-2 7v11l5 5 9-1 8-5 8-8 9-16 5-15 5-24 4-31 2-24-3 1-9 11-9 10-9 11-9 10-7 8-14 15-7 7-7 8-12 12-8 7-13 12-15 11-10 5-6 1-3-2-1-6 3-12 10-23 13-23 1-2-7 5-7 8-28 28-8 7-10 9-11 7-7 3h-7l-3-3-2-6 1-12 7-25 12-25 12-19 9-12 11-13 9-10 11-9 13-9 15-8 18-6 10-2h27l7 3-1 5-2 1-20 2-16 5-13 7-14 11-14 14-9 11-13 18-10 18-6 12-2 11v3l7-2 10-8 15-14 8-8 7-8 9-10 12-16 9-14 10-10 9-6 7-2h6l2 1-1 5-12 22-12 21-15 28-5 12-1 6 5-1 8-6 10-9 12-12 7-8 13-14 9-11 12-13 9-11 8-9 10-13 7-9 9-7 8-4z" fill="#030303"/>
<path transform="translate(176,120)" d="m0 0h81l16 1 5 2 1 4-9 21-11 21-6 8-4 1-2-2 1-10v-17l-4-10-6-5-8-3h-20l-11 4-9 10-10 15-17 28-15 27-9 17h58l1 2-3 5-7 3-55 1-10 19-25 50-12 26-7 16-11 22-12 20-12 16-11 13-10 10-13 9-6 1-2-2v-7l4-13 14-30 18-35 12-22 16-29 15-27 14-24 7-13-17-1-2-2 1-5 4-3 21-1 13-22 17-29 7-12 5-14 1-5v-7l-3-8-8-7 2-4 10-2z" fill="#020202"/>
<path transform="translate(596,173)" d="m0 0h9l5 4 1 2v12l-6 12-9 8-5 2h-9l-4-4-1-2v-8l3-10 8-11z" fill="#020202"/>
<path transform="translate(918,173)" d="m0 0h9l5 5 1 2v9l-4 10-7 8-5 4-4 2h-10l-4-5v-12l4-9 6-8 6-5z" fill="#010101"/>
<path transform="translate(525,542)" d="m0 0h20l5 3 3 5-1 8-4 5 6 5 1 2v7l-3 5-5 4-6 2h-11l-5-1zm9 6-1 1v12h8l3-3v-7l-4-3zm-1 19v14h9l4-3v-8l-2-2z" fill="#C8C8C8"/>
<path transform="translate(966,553)" d="m0 0 19 1 1 4-1 2-4 1v6l-4 6-6 5-1 2 9 3 5 4v7l-5 5-4 2-10 1-9-3-2-2v-7l9-6-1-4 1-2-6-3-3-4v-7l3-5 6-5zm-2 7-3 4 1 5 2 2h7l2-2v-7l-2-2zm4 27-6 3 1 5 8 1 5-3-1-4-3-2z" fill="#C9C9C9"/>
<path transform="translate(1103,536)" d="m0 0h3v22l5-4h7l5 5 1 3v12l-4 8-5 4-3 1h-11l-4-1v-48zm7 26-5 2v15l1 1h7l3-3 1-2v-8l-2-4z" fill="#C8C8C8"/>
<path transform="translate(746,536)" d="m0 0h3v22l5-4h7l5 6 1 2v11l-3 7-5 5-4 2h-11l-4-1v-48zm7 26-5 2v16h8l3-3 1-9-2-5z" fill="#C8C8C8"/>
<path transform="translate(706,536)" d="m0 0h2v40l1 9-4 2-4-1-2-4-5 5h-6l-6-5-1-3v-13l5-8 6-4h8l-1-16zm-15 26-3 4v8l2 4 7 1 3-2v-15z" fill="#C8C8C8"/>
<path transform="translate(608,536)" d="m0 0h2v16l-1 7 7-5h6l5 5 2 6-1 10-3 6-6 5-2 1h-12l-4-1v-48zm6 26-5 2 1 16h8l3-4v-11l-4-3z" fill="#C8C8C8"/>
<path transform="translate(849,554)" d="m0 0h4l2 5 5-4 2-1h7l3 3 1 3v26l-9 1v-22l-1-1h-6l-2 1v20l-6 2h-3v-18l-1-14z" fill="#C9C9C9"/>
<path transform="translate(1075,553)" d="m0 0h7l5 3 2 5 1 20 1 3-5 3-3-1-2-3-5 4h-7l-5-5v-8l5-5 2-1h10l-2-6h-8l-5 1-1-5zm0 19-3 1-1 4 2 3 7-1 1-1v-5z" fill="#C8C8C8"/>
<path transform="translate(911,553)" d="m0 0 9 1 5 5 2 6-1 10-4 8-5 4-9 1-6-4-3-5-1-7 2-9 5-7zm0 8-5 5v9l4 5h6l3-4v-10l-5-5z" fill="#C8C8C8"/>
<path transform="translate(644,553)" d="m0 0h7l5 3 3 3 1 3v12l-4 9-5 4-9 1-5-3-4-5-1-3v-8l4-10 6-5zm1 8-5 4v11l4 4h6l3-5v-8l-3-5z" fill="#C9C9C9"/>
<path transform="translate(816,554)" d="m0 0h5v23l1 1 7-1 1-22 8-1 1 27 1 3-5 3-3-1-1-5-8 6h-6l-4-3-1-3v-26z" fill="#C9C9C9"/>
<path transform="translate(1e3 553)" d="m0 0 9 1 4 5v9l-1 3-17 3 3 5h7l3-2h3l2 4-6 5-5 2-8-1-5-5-2-6 1-10 3-6 5-5zm-1 7-4 4-1 4 11-1 1-2-2-5z" fill="#C9C9C9"/>
<path transform="translate(1157,553)" d="m0 0 9 1 4 5v9l-1 3-17 3 3 5h7l3-2h3l2 4-6 5-5 2-8-1-5-5-2-6 1-10 3-6 5-5zm-1 7-4 4-1 4 11-1 1-3-2-4z" fill="#C9C9C9"/>
<path transform="translate(783,553)" d="m0 0 9 1 4 5v10l-1 2-17 3 3 5h7l6-2 2 4-7 6-9 1-5-3-3-3-2-10 2-8 4-6 5-4zm-1 7-4 4-1 4 11-1 1-4-2-3z" fill="#C9C9C9"/>
<path transform="translate(572,553)" d="m0 0 9 1 4 5v10l-3 3-15 2 3 5h7l6-2 2 4-7 6-9 1-5-3-3-3-2-9 2-9 4-6 5-4zm-1 7-4 4-1 4 11-1 1-4-2-3z" fill="#C9C9C9"/>
<path transform="translate(891,536)" d="m0 0h9l-1 7-1 1-7 1-1 10h7l-1 6h-5l-1 25-8 1v-26h-4v-5l4-1v-9l4-7z" fill="#C9C9C9"/>
<path transform="translate(1029,546)" d="m0 0h1v9h7v5l-7 1v17l6 1v5l-5 3-7-1-3-5-1-20h-3v-5l4-1v-7z" fill="#C8C8C8"/>
<path transform="translate(1136,536)" d="m0 0h3v49l-6 2h-3v-49z" fill="#C8C8C8"/>
<path transform="translate(673,536)" d="m0 0h2v49l-6 2h-3v-49z" fill="#C8C8C8"/>
<path transform="translate(1052,546)" d="m0 0 2 1-1 8h8l-1 5h-7v19h6l1 4-5 4h-6l-4-4-1-22-4-1 1-5h4v-7z" fill="#C9C9C9"/>
<path transform="translate(935,554)" d="m0 0h5v8h2l2-4 5-4 3 1-1 9-9 3-1 1v17l-6 2h-3v-32z" fill="#C8C8C8"/>
<path transform="translate(719,577)" d="m0 0 3 1 1 7-4 6-3 3-4-1 3-6v-8z" fill="#C9C9C9"/>
<path transform="translate(1195,545)" d="m0 0h1l-1 10-2 6h-4v-15z" fill="#CACACA"/>
<path transform="translate(516,545)" d="m0 0 2 2-4 14h-4v-14z" fill="#C9C9C9"/>
<path transform="translate(1205,545)" d="m0 0 2 2-4 14h-4v-11l1-4z" fill="#CBCBCB"/>
<path transform="translate(506,545)" d="m0 0h1l-1 9-2 7h-4v-15z" fill="#C9C9C9"/>
<path transform="translate(1178,577)" d="m0 0 5 1 1 5-3 4h-5l-2-2 1-6z" fill="#CACACA"/>
</svg>
