<?xml version="1.0" encoding="UTF-8"?>
<svg version="1.1" viewBox="0 0 1600 1600" width="1280" height="1280" xmlns="http://www.w3.org/2000/svg">
<path transform="translate(0)" d="m0 0h1600v1600h-1600z" fill="#FCFCFC"/>
<path transform="translate(463,473)" d="m0 0h62l166 1 8 1 1 1 1 24 1 84 3 6 4 2 7 1h25l5-2 1-2-1-76-1-38 129-2 104 1 63 1 30 1 2 6 1 10 5 113 6 155 3 46 3 16 105 1h248l30 1 2 30 5 81 12 158 8 91 13 145 8 98 3 37v12l-346-1h-144l-335-1h-41l-144 1-58 1-83 2h-242l-55-1-2-1v-16l3-72 3-69 2-52 7-147 6-91 4-69 4-64 8-131 5-117 5-148 1-24 1-1 18-1h158l1 5v49l-2 68-1 90 11-1h26l13 2-1-13v-99l1-76 1-23 1-1z" fill="#EA493F"/>
<path transform="translate(1090,822)" d="m0 0 106 1h248l30 1 2 30 5 81 12 158 8 91 13 145 8 98 3 37v12l-346-1h-144l-335-1-28-1 1-31 4-51 8-72 3-26 2-27 2-18 2-32 4-51 2-17 2-27 2-19 1-20 3-34 2-34 4-49 4-43 2-17 5-66 1-15 15 1h349z" fill="#FCAF3F"/>
<path transform="translate(585,111)" d="m0 0h45l55 6v2h17l12 2v2h12l4 1v2l9 1 15 5 8 2 18 8 15 9 11 9 20 18 7 8 12 15 10 16 9 17 6 16 4 19 4 34 5 77 4 94-69 1h-73l1 7 1 31 1 76-3 4-4 1h-25l-9-2-5-5-1-3-1-84-1-24-8-1-166-1-55-1-6-3-2-3v-89l1-34 3-41 3-26 5-21 6-15 11-23 12-19 10-13 9-10 13-13 10-7 15-8 21-7 14-4 15-5 36-9 46 2-11-1-9-3-7-2-24-2-8-2-9-1h-28l-30 3-36 5-33 6-31 8-25 9-17 8-11 7-10 8-17 17-9 11-15 20-13 20-11 23-4 1-3 6h-2v2h-3l1-7 10-23 8-15 10-15 9-12 11-12 15-15 18-13 17-10 24-10 26-8 30-7 30-5z" fill="#FCFCFC"/>
<path transform="translate(1473,833)" d="m0 0 2 1 5 87 13 172 8 91 13 145 8 98 3 37v12h-34l-5-1-165-1 4-2 9-2 2-2 9-2-3-3-1-7-7-1-9-6-3-4-2-6-4-1-2-5 4-1v-4h-2l-1-3 2-3 2-6v-4l-3-2v-4h2l2-4-1-5-1-6v-12l2-10-4-2-1-4 2-7v-14l3-4v-5l-2-4h2l-3-8 3-4v-10l4-2-1-3-2-2-1-7 4-5 1-3-8-1 1-12-2-5v-12l1-5-1-9 3-4h2l-2-9 1-4 5-4v-7l-3-1-2-4 5-10 2-7-3 1-2-2 1-4 2-7 6-2-6-3-1-2v-8l2-3 5-2 1-4-5-1-2-1-2-16v-9l4-2 1-4-1-12-1-4 1-7 2-2v-11l6-1 1-5-4-4-1-7 2-8 5-5v-7l-5-3 1-5 2-3-1-6 5-4v-11l-2-1v-6l2-4-1-4 3-1 1-5-1-5 2-11 3-16 2-10h2l-1-4 1-3h2l2-5 3-4 1-8-3-1 3-3h2l-1-3 7-13 3-7 4-1 3 1 2-26 1-11 2-11 4-2 3 3v2h2l6 8 5 6v2h2l1 2 7 1 3 4v2h8l4-2 1-2h4l1 8 6 1 1-4 5-3 4-6 1-4 4-2 3-6 6-4 4-5 3-11 2-3z" fill="#E8A43C"/>
<path transform="translate(932,475)" d="m0 0h109l30 1 2 6 1 10 5 113 6 155 3 46 2 12v7h-215v-3l12-4-1-7v-3l-1-5-1-8 1-17 2-7v-4h-2v-57l1-3v-8l-1-7 1-5-1-3v-12l-1-11v-7l-2-1h2l-1-8-2-4 1-1 1-9 1-3-1-8v-5l-1-3-1-11 1-10 2-6v-12l1-10 2-16 1-2v-7l-1-4 2-12-1-8h2v-9l4-4h2v-2l3-2 6-2h6v-3l11-4 7-2 8-1 2 1-1-4-10-1-1-2-3-2z" fill="#C63938"/>
<path transform="translate(862,954)" d="m0 0h19l10 3 3 4v190l3 33 4 19 8 14 10 12 14 9 14 7 16 5 10 2 10 1h37l22-4 19-8 12-7 10-9 6-9 8-32 2-16 2-36 1-77v-85l-2-2v-5l5-4 13-4 6-1h8l12 5 2 3 1 15 1 53 1 81v54l-1 20-4 20-6 17-8 17-12 17-4 5h-2v2l-17 13-11 6-17 8-16 5-23 3h-54l-25-4-23-7-25-12-11-7-13-12-9-12-6-10-7-17-4-15-3-17-1-13-1-26v-59l2-125 5-5z" fill="#FCFCFC"/>
<path transform="translate(188,474)" d="m0 0h112l1 5v49l-2 68-1 90 11-1h26l13 2v-11h1v12h-7l18 8 10 6 14 10 7 6 3 10 3 151v41l-1 3-8 1-61 2-67 1-7-2-3-5v-106l1-63 1-28 7-6 16-9 16-10 4-7 1-88 2-72 1-56-103 1h-51v-1z" fill="#FCAF3F"/>
<path transform="translate(585,111)" d="m0 0h45l55 6v2h17l12 2v2h12l4 1v2l9 1 15 5 8 2 18 8 15 9 11 9 20 18 7 8 12 15 10 16 9 17 6 16 4 19 4 34 5 77 4 94h-13l-2-1-1-5-5-84-4-61-4-42-4-22-4-12-10-19-12-17-13-16-12-13-14-13-11-9-14-10-16-9-18-7-18-4-22-2h-41l-17 2-19 5-15 6-15 7-11 8-14 13-8 7-9 9-9 11-12 16-12 19-8 15-6 15-4 13-4 20-4 36-3 44-4 94-2 3-5 1-5-3-1-2v-89l1-34 3-41 3-26 5-21 6-15 11-23 12-19 10-13 9-10 13-13 10-7 15-8 21-7 14-4 15-5 36-9 46 2-11-1-9-3-7-2-24-2-8-2-9-1h-28l-30 3-36 5-33 6-31 8-25 9-17 8-11 7-10 8-17 17-9 11-15 20-13 20-11 23-4 1-3 6h-2v2h-3l1-7 10-23 8-15 10-15 9-12 11-12 15-15 18-13 17-10 24-10 26-8 30-7 30-5z" fill="#C0C3CF"/>
<path transform="translate(981,501)" d="m0 0 7 1 3 6v2l3 1 1 6v10l1 2 1 7 2 10-1 6 2 4 1 9 2 19-1 5 1 1 2 23 2 30 1 25v41l1 9-1 8 1 23-1 14v20h-2l2 6 1 12 2 3-5 17h6v1l5 1v1h-29l-10-2 1-2-2-11v-7l-1-10 1-10-2-7v-15l-3-9 1-9-2-5-4-13-1-9 1-10v-13l-1-6v-30h-2l1-16-1-10v-10h2v-18l2-11v-11l3-5-1-8 1-8 2-6v-10l2-6v-5l-1-2v-13l1-2v-8l2-4z" fill="#B13232"/>
<path transform="translate(312,410)" d="m0 0h1l1 35 1 4 5-1 4 2 1-2 1-15h1v35l1 4 5 2 9 6 6 8v199l-13-1h-37l-1-13 1-77 3-102 2-8 4-1 2-6 2-34z" fill="#EBF8FB"/>
<path transform="translate(705,231)" d="m0 0h2l5 8 2 8 3-1 5 22 1 11h-1v37l1 24 1 6v54l1 31v16l2 9 1 6 2 6h2l3-8h1l2 13 6 1 1 7 1 1 1 31 1 76-3 4-4 1h-25l-9-2-5-5 2-11 2-1 2-9 3-10 1-14-1-5v-53l1-5v-16l-3-24 1-6 2-6h2l1-8 1-5 1-4 1-24v-29l-5-35-4-16-3-7-2-12-2-21-1-8 3 4h3l1-3v-9l-2-9-3-6 1-3z" fill="#E6F0F5"/>
<path transform="translate(646,123)" d="m0 0 40 2 4 2-41 1-17 2-19 5-15 6-15 7-11 8-14 13-8 7-9 9-9 11-12 16-12 19-8 15-6 15-4 13-4 20-4 36-3 44-4 94-2 3-5 1-5-3-1-2v-89l1-34 3-41 3-26 5-21 6-15 11-23 12-19 10-13 9-10 13-13 10-7 15-8 21-7 14-4 15-5z" fill="#C0C3D0"/>
<path transform="translate(723,824)" d="m0 0h2v31l-5 60-3 31-3 29-4 51-2 33-2 23-2 30-2 19-2 26-3 36-3 35-2 31-2 19-2 23-6 53-4 37-4 53-1 28-1 1h-88v-1l58-1 9-1h11v-2l4-1v-6l-1-2 3-4h2l-1-3-2-2v-6l2-3-1-2 2-5 2-32v-6l2-3v-32l1-6 1-8 2-7 1-10 2-6 1-1 1-19 1-15 1-6-1-2 2-12v-11l-1-4 2-12-2-9v-4l1-10v-11l1-10v-7-3l1-3-1-5 1-7 2-9 2-10 1-4 1-8 2-20h2l1-4-2-1 1-1 1-10 1-7v-10l2-9v-2l-3-2 3-2v-10l-1-3 1-3-1-4v-10l2-2-1-7 1-1-1-6v-9l1-10 2-4-1-3v-11h2l-1-4 1-8 1-11-1-2h2l1-14 1-5v-8l1-10 1-7v-3l1-5 3-27v-4l2-1v-14l2-7v-7h2v-10l-1-7-1-4z" fill="#C83A38"/>
<path transform="translate(585,111)" d="m0 0h45l55 6v1h-12l-22-2 6 1v1l-16-1-8-2-9-1h-28l-30 3-36 5-33 6-31 8-25 9-17 8-11 7-10 8-17 17-9 11-15 20-13 20-11 23-4 1-3 6h-2v2h-3l1-7 10-23 8-15 10-15 9-12 11-12 15-15 18-13 17-10 24-10 26-8 30-7 30-5z" fill="#C0C2CF"/>
<path transform="translate(300,565)" d="m0 0h1v31l2 11 1 11h2l1-3 2-4 1 1 2 10 1 4 2 9 4 7 2-7 4 3v6l-2 5 5 5-1 5-1 7 7-2 1 1 2-4v6h3v7l-4 2-1 2 3 1v2l7-1 3-4 1 11-13-1h-37l-1-13 1-77 1-30z" fill="#FCFCFC"/>
<path transform="translate(123,476)" d="m0 0h10l-5 5-1 7-1 25-1 15-1 37-1 61 1 21-2 6v7l-1 5-4 78-1 23-2 43-2 26-1 24-3 36-2 25-1 1-1 9h-1v-15l5-86 4-64 5-117 5-148z" fill="#D15439"/>
<path transform="translate(314,560)" d="m0 0 3 1 1 11-3 2h2l1 11v9l5 9v6l4 6v-5l5 5 2 10 7 28 2 3 2-2v9l-2 4-2 1-1 12-3 1v-2h-5l2-1 1-3 3-1 1-7h-3l-1-2-2 2v-3l-4 2h-3l-1-5 2-3-1-5-4-4 2-5 1-6-4-1-1 6-4-4-3-7-1-9-2-4-1-14v-7h2v-9h2l-2-5 1-3 1-14 1-1z" fill="#E6F0F6"/>
<path transform="translate(249,737)" d="m0 0 2 2v181l2 4 7 2 67-1 37-1h28l-3 2-3 1-2 2-7-2v2l-3 1v-2l-13 3v-2l-5 2h-17v-2l-5 2h-9l-7-2-1 2-9-1-6 1-7-1-1-1h-12l-18 2-13-2-2-6-1-4-1-24v-16l-2-11 1-5-1-6v-20-4l-1-5 2-9-1-4 1-45v-6l2-4-2-1 1-5-1-2h2l-1-6 1-5z" fill="#CD3C39"/>
<path transform="translate(684,1320)" d="m0 0h1v9l-5 45-3 31-3 39-1 28-1 1h-88v-1l58-1 9-1h11v-2l4-1v-6l-1-2 3-4h2l-1-3-2-2v-6l2-3-1-2 2-5 2-32v-6l2-3v-32l1-6 1-8 2-7 1-10 2-5z" fill="#CD3C39"/>
<path transform="translate(709,448)" d="m0 0h2l2 19v12l-1 5v54l1 5-1 13-4 13-2 7h-2l-1-5-1-17v-49l1-10 4-7 2-10z" fill="#ECFAFD"/>
<path transform="translate(97,1047)" d="m0 0h1v24l-2 28-1 37-1 2 2 1-1 5-1 4 1 3-1 2-2 25-2 41-3 31h-1v-47l5-99 3-44 1-1 1-11z" fill="#D15339"/>
<path transform="translate(312,410)" d="m0 0h1l1 35 1 4 5-1 4 2 1-2 1-15h1v39l-2 9-5 7-4 9-4-1v-8l-1-3v-40z" fill="#E6F0F6"/>
<path transform="translate(248,880)" d="m0 0h1l1 30 2 13 3 2 5 1 67-1 37-1h28l-3 2-3 1-2 2-7-2v2l-3 1v-2l-13 3v-2l-5 2h-17v-2l-5 2h-9l-7-2-1 2-9-1-6 1-7-1-1-1h-12l-18 2-13-2-2-6-1-4-1-24v-11z" fill="#CB3B39"/>
<path transform="translate(1090,824)" d="m0 0h2v2l-18 2-12 2h-23l-24-1-47-1-79-1 4-2z" fill="#E8A43C"/>
<path transform="translate(114,760)" d="m0 0h1l1 6-2 43-2 26-1 24-3 36-2 25-1 1-1 9h-1v-15l5-86 4-64z" fill="#D35739"/>
<path transform="translate(76,1474)" d="m0 0 74 1 148 1h27v2h-193l-55-1z" fill="#C64537"/>
<path transform="translate(1086,1227)" d="m0 0 2 1-9 10-9 7-8 5-10 4-6 4-17 4-13-1 2-2 4-2 15-2 8-4v-3l18-8 10-6 6-5 5-1z" fill="#E5EEF4"/>
<path transform="translate(744,527)" d="m0 0h1l1 31v27h-1l-1-7h-4l1 7-2 2h-4l1-5 2-2 1-3v-11l-1-5v-7l-1-4h1l1-11 3-8z" fill="#EDFAFC"/>
<path transform="translate(1079,686)" d="m0 0h2l2 21v53h-1l-1-13-4-6-1-12 1-7-1-5 1-5v-14h2z" fill="#B93C33"/>
<path transform="translate(671,1452)" d="m0 0h1v21h-88v-1l58-1 9-1h11v-2l4-1v-6l-1-2 3-4h2z" fill="#C63938"/>
<path transform="translate(123,476)" d="m0 0h10l-5 5-1 7-1 25-1 15-2 2-1 26h-1v-28z" fill="#D55E3A"/>
<path transform="translate(640,117)" d="m0 0 25 1 7 2 9 3 16 2v1h-11l-39-2v-2l-9-1 3-1z" fill="#F9FCFD"/>
<path transform="translate(248,880)" d="m0 0h1l1 30 2 13 3 2 5 1 34 1v2h-12l-18 2-13-2-2-6-1-4-1-24v-11z" fill="#C63937"/>
<path transform="translate(85,1228)" d="m0 0h1v21l-1 23h1v14l-2 34-1 1-1 20h-1v-22l2-52z" fill="#E37E3C"/>
<path transform="translate(701,505)" d="m0 0 2 2v49l1 23-1 5h-2z" fill="#FDFDFD"/>
<path transform="translate(1085,775)" d="m0 0h1l2 31 2 15-4 1-1-12-3-5-1-2v-7l3-7z" fill="#C44C35"/>
<path transform="translate(746,556)" d="m0 0h1l1 33-3 4-4 1h-25l-9-2-5-5 1-3 4 5 6 2h32z" fill="#C0C3D0"/>
<path transform="translate(1136,961)" d="m0 0 8 2 1 1v16l-1-3-4-1-5-6-2-4 1-4z" fill="#E6F0F6"/>
<path transform="translate(1023,476)" d="m0 0h48l1 5-5 1-4-2v-2l-11 1-25-1z" fill="#BD4434"/>
<path transform="translate(642,115)" d="m0 0h12l41 4 6 1-1 3-27-3-31-4z" fill="#E8A43C"/>
<path transform="translate(76,1474)" d="m0 0 58 1v1l-22 1h-35z" fill="#C84238"/>
<path transform="translate(100,990)" d="m0 0 2 3-1 3-1 26-1 6h-1v-37z" fill="#D15039"/>
<path transform="translate(248,880)" d="m0 0h1l1 30 2 13 1 5h-3l-2-9-1-24v-11z" fill="#C63938"/>
<path transform="translate(82,1346)" d="m0 0h1l-1 25-1 1-1 15h-1v-17l1-23z" fill="#DE713B"/>
<path transform="translate(97,1009)" d="m0 0h1l1 21-1 17-1 1-1 11h-1v-15z" fill="#E5803C"/>
<path transform="translate(104,896)" d="m0 0 4 2-2 22-1 1-1 9h-1v-15z" fill="#DD6B3B"/>
<path transform="translate(101,948)" d="m0 0h1v34l-1 8-2 1v-15z" fill="#E47B3C"/>
<path transform="translate(723,824)" d="m0 0h2v21l-2 3-2-6v-6l-1-3z" fill="#C63938"/>
<path transform="translate(78,1388)" d="m0 0h1v7l2 1-1 17-1 1-1 18h-1v-23z" fill="#E57D3C"/>
<path transform="translate(640,117)" d="m0 0h10l6 2-3 4-10-1-5-1 3-1z" fill="#E7F1F6"/>
<path transform="translate(706,588)" d="m0 0 11 1h13l12 2v1h-29l-7-3z" fill="#FDFDFD"/>
<path transform="translate(856,1222)" d="m0 0 3 3 8 16 8 11 1 3-3-1-9-13-8-16z" fill="#ECA63C"/>
<path transform="translate(701,556)" d="m0 0h2l1 23-1 5h-2z" fill="#F9F9FA"/>
<path transform="translate(123,529)" d="m0 0h1v28l-2 7h-1l1-34z" fill="#CA3B39"/>
<path transform="translate(348,655)" d="m0 0h1l2 33-1 3-6-1-3-3 8 1-1-12z" fill="#C53837"/>
<path transform="translate(618,156)" d="m0 0 3 1-2 1v4h-13l-3-2z" fill="#E6F0F6"/>
<path transform="translate(846,1175)" d="m0 0h1l4 21v9l-2-4-2-7-1-10z" fill="#EDA63C"/>
<path transform="translate(348,676)" d="m0 0h1v12h-7l4 3-5-1-2-1-9-1-1-2h16l3 1z" fill="#EAA53C"/>
<path transform="translate(745,487)" d="m0 0h1v28l-1 7-2-3-1-4 1-5h2z" fill="#F5FBFD"/>
<path transform="translate(1079,667)" d="m0 0h1l2 14v19h-1v-14h-2z" fill="#D06338"/>
<path transform="translate(726,125)" d="m0 0 8 1 18 5 2 2-7-1-16-4-5-2z" fill="#E8A43C"/>
<path transform="translate(884,958)" d="m0 0 4 1-2 5-4 3-3-2 2-5z" fill="#E6F0F6"/>
<path transform="translate(1083,765)" d="m0 0h1l1 7v17l-2-4-1-12z" fill="#BA3534"/>
<path transform="translate(848,969)" d="m0 0 4 2-2 8-1 14h-1z" fill="#C0C3D0"/>
<path transform="translate(1063,477)" d="m0 0h9v4l-5 1-4-2z" fill="#B13232"/>
<path transform="translate(657,118)" d="m0 0h8l3 5h-8l-2-2 1-2z" fill="#DFE7EE"/>
<path transform="translate(1087,806)" d="m0 0h1l2 15-4 1z" fill="#CF6337"/>
<path transform="translate(248,912)" d="m0 0h2l2 11 1 5h-3l-2-9z" fill="#CB3B39"/>
<path transform="translate(907,1217)" d="m0 0 3 1 6 8h-4l-6-8z" fill="#E4EBF1"/>
<path transform="translate(867,1242)" d="m0 0 4 5 5 6v2l-3-1-6-8z" fill="#EEA73D"/>
<path transform="translate(638,121)" d="m0 0 9 1-1 2-8 1z" fill="#FDFDFD"/>
</svg>
