<?xml version="1.0" encoding="UTF-8"?>
<svg version="1.1" viewBox="0 0 2048 2048" width="1280" height="1280" xmlns="http://www.w3.org/2000/svg">
<path transform="translate(598,387)" d="m0 0 10 2 14 10 19 14 29 19 21 13 19 11 27 15 42 21 29 13 29 12 35 13 36 12 27 8 38 10 43 9 43 7 43 5 40 3 31 2 15 3 12 5 13 8 10 9 8 9 7 11 6 15 3 13v260l-2 25-4 28-6 29-8 29-10 28-13 30-10 20-13 22-7 11-13 19-11 14-9 11-11 12-7 8-20 20-8 7-14 12-20 15-16 11-21 13-24 13-23 11-23 9-33 11-33 8-30 5-30 3-19 1h-23l-33-2-30-4-30-6-29-8-24-8-31-13-28-14-22-13-21-14-16-12-11-9-14-12-15-14-16-16-9-11-10-11-12-16-11-15-12-19-13-23-12-24-11-27-12-36-6-24-6-32-3-25-1-12-1-25v-265l2-17 5-13 6-11 11-13 10-9 16-12 21-12 20-9 32-11 16-8 14-9 14-11 12-11 9-9 9-11 14-19 11-18 12-23 7-14 6-6z" fill="#FE504B"/>
<path transform="translate(1553,1104)" d="m0 0h45l36 3 32 5 31 7 27 8 28 10 27 12 22 11 27 16 12 8 17 12 14 11 13 11 10 9 8 7 21 21 7 8 12 14 13 17 10 14 15 23 13 23 14 28 11 27 11 33 7 27 6 30 6 44v64l-6 45-8 40-10 34-12 32-12 26-13 25-14 23-11 16-10 14-14 17-12 14-8 8-7 8-8 8h-2v2l-8 7-11 10-14 11-17 13-24 16-24 14-25 13-30 13-23 8-23 7-24 6-33 6-28 4-8 1h-66l-43-6-26-5-28-7-26-8-21-8-27-12-24-12-25-15-12-8-17-12-16-13-11-9-13-12-16-15-12-13-11-12-11-14-10-13-12-17-13-21-10-18-9-17-11-25-9-24-9-28-7-29-5-27-3-22-2-25v-49l3-35 6-36 7-30 11-35 11-27 11-24 11-21 12-20 16-24 14-18 9-11 3-4h2l2-4 12-13 25-25 11-9 9-8 16-12 18-13 21-13 21-12 24-12 19-8 24-9 29-9 30-7 21-4 35-4zm18 167-16 3-12 5-11 7-11 10-7 10-7 15-3 16v296l-8-7-39-39-14-9-11-5-14-3h-18l-16 4-14 7-13 11-9 12-7 15-3 12v23l5 17 8 14 14 15 161 161 12 9 13 6 10 3 7 1h16l14-3 12-5 13-9 175-175 9-14 5-13 2-10v-19l-4-16-8-15-9-11-13-10-13-6-16-4h-19l-13 3-16 8-10 8-43 43-2 1v-294l-3-17-5-12-7-11-8-9-14-10-14-6-17-3z" fill="#FE504B"/>
<path transform="translate(625)" d="m0 0h91l65 6 45 5 41 6 43 8 40 9 37 10 36 11 36 13 36 15 33 16 25 13 22 13 24 16 14 10 16 12 13 11 11 9 7 7 8 7 17 17 7 8 13 15 13 17 13 18 11 18 9 16 12 23 10 24 9 25 8 29 6 29 4 30 2 24v50l-4 37-5 26-6 25-12 36-12 29-8 17-12 22-11 17-6-2-12-7-17-7-19-6-5-2-1-56-2-20-5-18-8-17-10-14-10-11-13-10-14-8-16-6-14-3-23-2-47-3-44-5-39-6-43-9-36-9-31-9-40-13-34-13-40-17-24-11-19-10-27-14-24-14-23-14-24-16-17-12-17-13-10-6-9-3-12-1-12 3-11 7-7 9-14 29-11 19-14 20-11 13-19 19-13 10-15 9-12 5-29 10-20 9-17 9-18 12-11 9-10 9-7 7-9 13-8 16-5 16-1 6-1 23-1 81-8 3-17 5-18 8-14 8-8 6h-4l-13-23-11-22-12-28-11-30-9-29-8-34-6-35-4-37-1-19v-41l2-28 3-25 5-29 7-30 9-30 11-30 11-24 12-24 10-17 11-17 12-17 10-13 11-13 7-8 12-13 16-16 8-7 14-12 12-9 18-13 19-12 21-12 15-8 32-14 28-10 27-8 30-7 34-6z" fill="#FE504B"/>
<path transform="translate(1063,1518)" d="m0 0 18 1v10l-2 34v30l2 31 5 37 7 34 7 25 10 30 12 29 14 29 13 23 14 22 13 18 10 13 9 11 12 14 14 15 1 2v122h-821l-1-10v-171l-1-24-4-16-7-14-7-9-2-4-4-2-8-7-15-8-13-4-6-1h-23l-16 4-14 7-10 8-9 9-8 13-5 11-3 14-1 19-1 185h-168l-20-7-15-8-14-12-10-12-8-14-7-21-1-4v-27l20-77 10-37 12-36 9-21 12-25 13-23 19-28 14-18 9-11 15-16 6-7 8-7 8-8 11-9 13-11 19-14 17-11 17-10 18-10 24-11 28-11 30-9 31-7 34-5 32-2h132l6 4 17 17 8 7 11 10 14 11 12 10 19 13 18 11 18 10 21 10 24 9 25 7 23 4 25 2h16l23-2 27-5 25-7 26-10 23-11 19-11 16-10 17-12 17-13 13-11 11-9 8-8 8-7 10-9z" fill="#FE504B"/>
<path transform="translate(954,1342)" d="m0 0h2l1 75 2 19 5 16 8 17 8 11 12 14 8 7 17 13 6 3-1 4-10 9-8 7-16 13-18 13-20 13-25 14-27 12-21 7-25 6-19 3-13 1h-23l-20-2-25-5-23-7-26-11-23-12-22-14-17-13-14-11-10-9-8-7-9-8v-3l12-7 11-9 14-13 13-17 8-15 5-15 2-9 1-9 1-72 18 4 29 6 37 5 27 2h44l33-3 27-4 28-6 29-8z" fill="#FE504B"/>
<path transform="translate(317,1804)" d="m0 0h9l13 2 12 6 9 7 8 11 5 11 2 9v198h-106v-198l3-12 6-11 9-10 10-7 9-4z" fill="#FE504B"/>
<path transform="translate(1273,752)" d="m0 0 9 2 16 6 17 9 13 10 10 9 9 10 9 13 8 15 6 16 4 17 1 8v25l-3 17-5 17-9 19-8 12-8 10-12 12-17 12-15 8-13 5-20 5h-6l5-28 4-27 3-32 1-30z" fill="#FE504B"/>
<path transform="translate(318,752)" d="m0 0 3 1 1 145 2 38 4 32 5 26 3 14-4 1-21-5-13-5-19-10-12-9-12-11-11-13-8-13-8-16-6-20-2-12-1-18 2-20 4-17 6-15 9-17 10-13 11-12 15-12 15-9 15-6z" fill="#FE504B"/>
<path transform="translate(1248,1951)" d="m0 0 4 1 10 9 17 13 18 13 22 14 32 18 3 3v26h-106z" fill="#FE504B"/>
<path transform="translate(1380,2034)" d="m0 0 5 1 29 11 2 2h-36l-1-12z" fill="#FE504B"/>
</svg>
